<svg xmlns="http://www.w3.org/2000/svg" viewBox="0 0 100 600" fill="none">
  <!-- Dense botanical border — left side. Lots of leaves + muted pink-red flowers. -->

  <!-- === TOP CLUSTER === -->
  <path d="M60,20 C40,30 15,50 5,80 C12,72 35,50 55,35Z" fill="#5A9A8F" opacity="0.7"/>
  <path d="M70,40 C48,48 20,68 8,100 C16,90 42,68 65,52Z" fill="#8BA8A0" opacity="0.6"/>
  <path d="M55,10 C35,22 10,45 2,72 C10,62 32,42 52,25Z" fill="#4A6B6F" opacity="0.55"/>
  <path d="M65,55 C45,60 18,82 5,115 C14,105 40,82 60,68Z" fill="#6B9E8A" opacity="0.5"/>
  <path d="M50,0 C30,15 8,38 0,60 C8,52 28,32 48,15Z" fill="#5A9A8F" opacity="0.6"/>
  <circle cx="25" cy="45" r="7" fill="#B5635A" opacity="0.45"/>
  <circle cx="18" cy="55" r="5.5" fill="#C4786E" opacity="0.4"/>
  <circle cx="32" cy="38" r="5" fill="#D4887E" opacity="0.35"/>
  <circle cx="12" cy="70" r="6" fill="#B5635A" opacity="0.4"/>
  <circle cx="22" cy="30" r="4" fill="#C4786E" opacity="0.38"/>
  <circle cx="38" cy="58" r="5" fill="#D4887E" opacity="0.32"/>
  <circle cx="8" cy="42" r="4.5" fill="#B5635A" opacity="0.42"/>

  <!-- === UPPER-MID CLUSTER === -->
  <path d="M55,120 C35,128 10,150 2,180 C10,170 35,148 52,132Z" fill="#8BA8A0" opacity="0.65"/>
  <path d="M65,140 C42,150 15,172 5,205 C14,192 40,170 60,155Z" fill="#5A9A8F" opacity="0.55"/>
  <path d="M48,110 C28,125 8,148 0,175 C10,162 30,140 45,122Z" fill="#4A6B6F" opacity="0.5"/>
  <path d="M60,155 C38,165 12,188 4,218 C12,208 38,185 55,168Z" fill="#6B9E8A" opacity="0.48"/>
  <circle cx="20" cy="148" r="6.5" fill="#B5635A" opacity="0.45"/>
  <circle cx="15" cy="160" r="5" fill="#C4786E" opacity="0.4"/>
  <circle cx="30" cy="140" r="5.5" fill="#D4887E" opacity="0.35"/>
  <circle cx="10" cy="175" r="5" fill="#B5635A" opacity="0.38"/>
  <circle cx="28" cy="168" r="4" fill="#C4786E" opacity="0.32"/>

  <!-- === MIDDLE CLUSTER === -->
  <path d="M58,250 C38,258 12,280 4,310 C12,300 38,278 55,262Z" fill="#5A9A8F" opacity="0.7"/>
  <path d="M50,235 C30,248 8,272 0,300 C10,288 32,265 48,248Z" fill="#8BA8A0" opacity="0.55"/>
  <path d="M65,265 C42,275 15,298 5,330 C14,318 40,295 60,278Z" fill="#4A6B6F" opacity="0.5"/>
  <path d="M55,280 C35,290 10,312 2,340 C10,330 35,308 52,292Z" fill="#6B9E8A" opacity="0.52"/>
  <circle cx="22" cy="272" r="7" fill="#B5635A" opacity="0.45"/>
  <circle cx="15" cy="285" r="5.5" fill="#C4786E" opacity="0.4"/>
  <circle cx="30" cy="260" r="5" fill="#D4887E" opacity="0.35"/>
  <circle cx="8" cy="298" r="6" fill="#B5635A" opacity="0.42"/>
  <circle cx="35" cy="290" r="4.5" fill="#C4786E" opacity="0.35"/>
  <circle cx="18" cy="255" r="4" fill="#D4887E" opacity="0.3"/>

  <!-- === LOWER-MID CLUSTER === -->
  <path d="M60,380 C40,388 15,410 5,440 C12,430 38,408 55,392Z" fill="#8BA8A0" opacity="0.65"/>
  <path d="M50,365 C30,378 8,402 0,430 C10,418 32,395 48,378Z" fill="#5A9A8F" opacity="0.55"/>
  <path d="M65,395 C42,405 15,428 5,460 C14,448 40,425 60,408Z" fill="#4A6B6F" opacity="0.5"/>
  <circle cx="20" cy="405" r="6.5" fill="#B5635A" opacity="0.45"/>
  <circle cx="12" cy="418" r="5" fill="#C4786E" opacity="0.4"/>
  <circle cx="30" cy="395" r="5.5" fill="#D4887E" opacity="0.35"/>
  <circle cx="25" cy="425" r="4.5" fill="#B5635A" opacity="0.38"/>
  <circle cx="8" cy="440" r="5" fill="#C4786E" opacity="0.35"/>

  <!-- === BOTTOM CLUSTER === -->
  <path d="M55,500 C35,510 10,532 2,560 C10,550 35,528 52,512Z" fill="#5A9A8F" opacity="0.7"/>
  <path d="M65,520 C42,530 15,552 5,585 C14,572 40,550 60,535Z" fill="#8BA8A0" opacity="0.6"/>
  <path d="M48,490 C28,505 8,528 0,555 C10,542 30,520 45,502Z" fill="#4A6B6F" opacity="0.55"/>
  <path d="M60,540 C38,550 12,572 4,600 C12,590 38,568 55,552Z" fill="#6B9E8A" opacity="0.5"/>
  <circle cx="22" cy="525" r="7" fill="#B5635A" opacity="0.45"/>
  <circle cx="15" cy="540" r="5.5" fill="#C4786E" opacity="0.4"/>
  <circle cx="32" cy="515" r="5" fill="#D4887E" opacity="0.35"/>
  <circle cx="10" cy="555" r="6" fill="#B5635A" opacity="0.42"/>
  <circle cx="28" cy="548" r="4" fill="#C4786E" opacity="0.35"/>
  <circle cx="38" cy="535" r="4.5" fill="#D4887E" opacity="0.3"/>
</svg>
